<svg width="25" height="25" viewBox="0 0 25 25" fill="none" xmlns="http://www.w3.org/2000/svg">
<path d="M12.2142 22.2246C13.5194 22.2246 14.5873 21.3015 14.5873 20.1733H9.8412C9.8412 20.7174 10.0912 21.2391 10.5362 21.6238C10.9813 22.0085 11.5849 22.2246 12.2142 22.2246ZM19.3333 16.0708V10.9426C19.3333 7.79384 17.3874 5.15794 13.994 4.46051V3.76307C13.994 2.91179 13.199 2.22461 12.2142 2.22461C11.2294 2.22461 10.4345 2.91179 10.4345 3.76307V4.46051C7.02916 5.15794 5.09515 7.78358 5.09515 10.9426V16.0708L3.56454 17.3938C2.81704 18.04 3.33911 19.1477 4.3951 19.1477H20.0215C21.0775 19.1477 21.6114 18.04 20.8639 17.3938L19.3333 16.0708Z" fill="#0E0049"/>
<circle cx="17.2128" cy="7.22461" r="4.5" fill="#21B6A8" stroke="white"/>
</svg>
