<svg width="17" height="18" viewBox="0 0 17 18" fill="none" xmlns="http://www.w3.org/2000/svg">
<path fill-rule="evenodd" clip-rule="evenodd" d="M12.4787 4.6343C14.7673 7.03078 14.6798 10.8288 12.2833 13.1173C9.88684 15.4059 6.08885 15.3184 3.80029 12.9219C1.51172 10.5254 1.59921 6.72746 3.99569 4.4389C6.39217 2.15033 10.1902 2.23782 12.4787 4.6343ZM14.345 13.8283C16.8592 10.747 16.7427 6.20342 13.9251 3.25303C10.8737 0.0577187 5.80973 -0.0589276 2.61442 2.99249C-0.580892 6.04391 -0.697539 11.1079 2.35388 14.3032C5.17141 17.2536 9.7048 17.5792 12.8986 15.2096L15.0133 17.424C15.3947 17.8234 16.0277 17.838 16.4271 17.4565C16.8265 17.0751 16.8411 16.4421 16.4597 16.0427L14.345 13.8283Z" fill="#0E0049"/>
</svg>
