<svg width="94" height="39" viewBox="0 0 94 39" fill="none" xmlns="http://www.w3.org/2000/svg">
<path d="M0 28.989V8.4159H2.66174V28.989H0Z" fill="#111314"/>
<path d="M14.0378 29.1553C12.5591 29.1553 11.2467 28.8318 10.1007 28.1849C8.95464 27.5379 8.04891 26.6507 7.38348 25.5231C6.71804 24.3771 6.38532 23.0832 6.38532 21.6414C6.38532 20.1812 6.71804 18.8873 7.38348 17.7597C8.04891 16.6322 8.95464 15.7542 10.1007 15.1257C11.2467 14.4788 12.5591 14.1553 14.0378 14.1553C15.4981 14.1553 16.8012 14.4788 17.9473 15.1257C19.1118 15.7542 20.0175 16.6322 20.6645 17.7597C21.3299 18.8688 21.6626 20.1627 21.6626 21.6414C21.6626 23.1017 21.3299 24.3956 20.6645 25.5231C20.0175 26.6507 19.1118 27.5379 17.9473 28.1849C16.8012 28.8318 15.4981 29.1553 14.0378 29.1553ZM14.0378 26.8263C14.9805 26.8263 15.8216 26.6137 16.5609 26.1886C17.3188 25.7634 17.9103 25.1627 18.3354 24.3864C18.7606 23.5915 18.9731 22.6766 18.9731 21.6414C18.9731 20.5878 18.7606 19.6821 18.3354 18.9242C17.9103 18.1479 17.3188 17.5472 16.5609 17.122C15.8216 16.6969 14.9805 16.4843 14.0378 16.4843C13.0951 16.4843 12.2541 16.6969 11.5147 17.122C10.7753 17.5472 10.1839 18.1479 9.74023 18.9242C9.2966 19.6821 9.07479 20.5878 9.07479 21.6414C9.07479 22.6766 9.2966 23.5915 9.74023 24.3864C10.1839 25.1627 10.7753 25.7634 11.5147 26.1886C12.2541 26.6137 13.0951 26.8263 14.0378 26.8263Z" fill="#111314"/>
<path d="M31.7763 34.5343C30.4269 34.5343 29.1145 34.3402 27.8391 33.952C26.5822 33.5823 25.5563 33.0463 24.7615 32.3439L26.0369 30.2921C26.7208 30.8836 27.5619 31.3457 28.56 31.6784C29.5582 32.0296 30.6025 32.2052 31.6931 32.2052C33.4306 32.2052 34.7061 31.7986 35.5194 30.9853C36.3327 30.1719 36.7393 28.9335 36.7393 27.2699V24.1645L37.0166 21.2533L36.878 18.3143V14.2939H39.4011V26.9926C39.4011 29.5805 38.7541 31.4843 37.4602 32.7043C36.1663 33.9243 34.2717 34.5343 31.7763 34.5343ZM31.4436 28.379C30.0203 28.379 28.7449 28.0832 27.6173 27.4917C26.5083 26.8817 25.621 26.0407 24.9556 24.9686C24.3086 23.8965 23.9851 22.6581 23.9851 21.2533C23.9851 19.83 24.3086 18.5915 24.9556 17.5379C25.621 16.4658 26.5083 15.634 27.6173 15.0425C28.7449 14.451 30.0203 14.1553 31.4436 14.1553C32.7005 14.1553 33.8465 14.4141 34.8816 14.9316C35.9168 15.4307 36.7393 16.207 37.3493 17.2606C37.9778 18.3143 38.292 19.6451 38.292 21.2533C38.292 22.8429 37.9778 24.1645 37.3493 25.2181C36.7393 26.2718 35.9168 27.0666 34.8816 27.6026C33.8465 28.1202 32.7005 28.379 31.4436 28.379ZM31.7486 26.0499C32.7282 26.0499 33.597 25.8466 34.3548 25.44C35.1127 25.0333 35.7042 24.4695 36.1293 23.7486C36.573 23.0278 36.7948 22.196 36.7948 21.2533C36.7948 20.3106 36.573 19.4788 36.1293 18.7579C35.7042 18.037 35.1127 17.4825 34.3548 17.0943C33.597 16.6876 32.7282 16.4843 31.7486 16.4843C30.7689 16.4843 29.8909 16.6876 29.1145 17.0943C28.3567 17.4825 27.7559 18.037 27.3123 18.7579C26.8872 19.4788 26.6746 20.3106 26.6746 21.2533C26.6746 22.196 26.8872 23.0278 27.3123 23.7486C27.7559 24.4695 28.3567 25.0333 29.1145 25.44C29.8909 25.8466 30.7689 26.0499 31.7486 26.0499Z" fill="#111314"/>
<path d="M44.8751 28.989V12.9908C44.8751 11.549 45.291 10.403 46.1228 9.55268C46.9731 8.68392 48.1745 8.24954 49.7272 8.24954C50.3002 8.24954 50.8455 8.32348 51.3631 8.47135C51.8991 8.60074 52.352 8.81331 52.7217 9.10906L51.9176 11.1331C51.6404 10.9113 51.3261 10.7449 50.9749 10.634C50.6237 10.5046 50.254 10.4399 49.8659 10.4399C49.0895 10.4399 48.498 10.6617 48.0914 11.1054C47.6847 11.5305 47.4814 12.1682 47.4814 13.0185V14.9871L47.5368 16.207V28.989H44.8751ZM42.3797 16.4843V14.2939H51.7513V16.4843H42.3797ZM54.2744 28.989V14.2939H56.9361V28.989H54.2744ZM55.6052 11.4658C55.0877 11.4658 54.6533 11.2995 54.3021 10.9667C53.9694 10.634 53.803 10.2274 53.803 9.74677C53.803 9.24769 53.9694 8.83179 54.3021 8.49908C54.6533 8.16636 55.0877 8 55.6052 8C56.1228 8 56.5479 8.16636 56.8807 8.49908C57.2319 8.81331 57.4075 9.21072 57.4075 9.69132C57.4075 10.1904 57.2411 10.6155 56.9084 10.9667C56.5757 11.2995 56.1413 11.4658 55.6052 11.4658Z" fill="#111314"/>
<path d="M67.0517 29.1553C65.573 29.1553 64.427 28.7579 63.6137 27.9631C62.8003 27.1682 62.3937 26.0315 62.3937 24.5527V11.0776H65.0554V24.4418C65.0554 25.2366 65.2495 25.8466 65.6377 26.2718C66.0443 26.6969 66.6174 26.9095 67.3567 26.9095C68.1885 26.9095 68.8817 26.6784 69.4362 26.2163L70.268 28.1294C69.8614 28.4806 69.3715 28.7394 68.7985 28.9058C68.244 29.0721 67.6617 29.1553 67.0517 29.1553ZM59.8983 16.4843V14.2939H69.2699V16.4843H59.8983Z" fill="#111314"/>
<path d="M81.7246 35.5698L87.8623 31.9727L93.9999 35.39L87.8623 38.9871L81.7246 35.5698Z" fill="#3375F6" fill-opacity="0.46"/>
<path d="M83.1689 2.92269L88.1375 0L93.1061 2.77655L88.1375 5.69924L83.1689 2.92269Z" fill="#8CB3FF"/>
<path d="M83.1689 2.92188V8.76725L88.1375 11.6899V5.69843L83.1689 2.92188Z" fill="#00359D"/>
<path d="M88.1377 5.70003L93.1063 2.77734V8.65194L88.1377 11.6915V5.70003Z" fill="#3375F6"/>
<path d="M82.8936 18.9364L87.8621 16.0137L92.8307 18.7902L87.8621 21.7129L82.8936 18.9364Z" fill="#8CB3FF"/>
<path d="M82.8936 18.9355V24.7809L87.8621 27.7036V21.7121L82.8936 18.9355Z" fill="#00359D"/>
<path d="M87.8623 21.7137L92.8309 18.791V24.6656L87.8623 27.7052V21.7137Z" fill="#3375F6"/>
</svg>
