<svg width="151" height="66" viewBox="0 0 151 66" fill="none" xmlns="http://www.w3.org/2000/svg">
<path d="M5.12903 49.3633V14.579H9.62942V49.3633H5.12903ZM28.8637 49.6446C26.3635 49.6446 24.1446 49.0976 22.2069 48.0038C20.2692 46.9099 18.7379 45.4098 17.6128 43.5034C16.4877 41.5657 15.9251 39.378 15.9251 36.9403C15.9251 34.4714 16.4877 32.2837 17.6128 30.3773C18.7379 28.4709 20.2692 26.9864 22.2069 25.9238C24.1446 24.8299 26.3635 24.283 28.8637 24.283C31.3327 24.283 33.536 24.8299 35.4737 25.9238C37.4426 26.9864 38.974 28.4709 40.0678 30.3773C41.1929 32.2524 41.7555 34.4401 41.7555 36.9403C41.7555 39.4093 41.1929 41.597 40.0678 43.5034C38.974 45.4098 37.4426 46.9099 35.4737 48.0038C33.536 49.0976 31.3327 49.6446 28.8637 49.6446ZM28.8637 45.7067C30.4576 45.7067 31.8796 45.3473 33.1297 44.6285C34.4111 43.9097 35.4112 42.894 36.13 41.5814C36.8488 40.2375 37.2082 38.6905 37.2082 36.9403C37.2082 35.1589 36.8488 33.6276 36.13 32.3462C35.4112 31.0336 34.4111 30.0179 33.1297 29.2991C31.8796 28.5802 30.4576 28.2208 28.8637 28.2208C27.2699 28.2208 25.8479 28.5802 24.5977 29.2991C23.3476 30.0179 22.3476 31.0336 21.5975 32.3462C20.8474 33.6276 20.4724 35.1589 20.4724 36.9403C20.4724 38.6905 20.8474 40.2375 21.5975 41.5814C22.3476 42.894 23.3476 43.9097 24.5977 44.6285C25.8479 45.3473 27.2699 45.7067 28.8637 45.7067ZM58.8553 58.7391C56.5739 58.7391 54.3549 58.4109 52.1985 57.7546C50.0733 57.1296 48.3388 56.2232 46.9949 55.0356L49.1514 51.5666C50.3077 52.5667 51.7297 53.348 53.4174 53.9105C55.105 54.5043 56.8708 54.8012 58.7147 54.8012C61.6525 54.8012 63.8089 54.1137 65.184 52.7386C66.5591 51.3635 67.2467 49.2695 67.2467 46.4568V41.2063L67.7155 36.284L67.4811 31.3149V24.5174H71.7471V45.988C71.7471 50.3634 70.6532 53.5824 68.4655 55.6451C66.2778 57.7077 63.0744 58.7391 58.8553 58.7391ZM58.2928 48.3319C55.8863 48.3319 53.7299 47.8319 51.8235 46.8318C49.9483 45.8005 48.4482 44.3785 47.3231 42.5658C46.2292 40.7532 45.6823 38.6592 45.6823 36.284C45.6823 33.8776 46.2292 31.7836 47.3231 30.0022C48.4482 28.1896 49.9483 26.7832 51.8235 25.7831C53.7299 24.783 55.8863 24.283 58.2928 24.283C60.418 24.283 62.3556 24.7205 64.1058 25.5956C65.8559 26.4394 67.2467 27.752 68.278 29.5334C69.3406 31.3149 69.8719 33.565 69.8719 36.284C69.8719 38.9718 69.3406 41.2063 68.278 42.9877C67.2467 44.7691 65.8559 46.113 64.1058 47.0193C62.3556 47.8944 60.418 48.3319 58.2928 48.3319ZM58.8085 44.3941C60.4648 44.3941 61.9337 44.0503 63.2151 43.3628C64.4964 42.6752 65.4965 41.722 66.2153 40.5031C66.9654 39.2843 67.3404 37.8779 67.3404 36.284C67.3404 34.6901 66.9654 33.2838 66.2153 32.0649C65.4965 30.8461 64.4964 29.9085 63.2151 29.2522C61.9337 28.5646 60.4648 28.2208 58.8085 28.2208C57.1521 28.2208 55.6676 28.5646 54.3549 29.2522C53.0736 29.9085 52.0579 30.8461 51.3078 32.0649C50.589 33.2838 50.2296 34.6901 50.2296 36.284C50.2296 37.8779 50.589 39.2843 51.3078 40.5031C52.0579 41.722 53.0736 42.6752 54.3549 43.3628C55.6676 44.0503 57.1521 44.3941 58.8085 44.3941ZM81.0024 49.3633V22.3141C81.0024 19.8764 81.7056 17.9387 83.1119 16.5011C84.5496 15.0322 86.581 14.2978 89.2062 14.2978C90.175 14.2978 91.097 14.4228 91.9721 14.6728C92.8784 14.8916 93.6441 15.251 94.2691 15.751L92.9097 19.1732C92.4409 18.7981 91.9096 18.5169 91.3158 18.3294C90.722 18.1106 90.0969 18.0012 89.4406 18.0012C88.128 18.0012 87.1279 18.3762 86.4403 19.1263C85.7528 19.8451 85.409 20.9233 85.409 22.361V25.6894L85.5028 27.752V49.3633H81.0024ZM76.7833 28.2208V24.5174H92.6284V28.2208H76.7833ZM96.8944 49.3633V24.5174H101.395V49.3633H96.8944ZM99.1446 19.7357C98.2695 19.7357 97.5351 19.4545 96.9413 18.8919C96.3787 18.3294 96.0974 17.6418 96.0974 16.8292C96.0974 15.9854 96.3787 15.2822 96.9413 14.7197C97.5351 14.1571 98.2695 13.8758 99.1446 13.8758C100.02 13.8758 100.738 14.1571 101.301 14.7197C101.895 15.251 102.192 15.9229 102.192 16.7355C102.192 17.5793 101.91 18.2981 101.348 18.8919C100.785 19.4545 100.051 19.7357 99.1446 19.7357ZM118.498 49.6446C115.998 49.6446 114.06 48.9726 112.685 47.6288C111.31 46.2849 110.622 44.3629 110.622 41.8626V19.0794H115.123V41.6751C115.123 43.019 115.451 44.0503 116.107 44.7691C116.795 45.4879 117.763 45.8474 119.014 45.8474C120.42 45.8474 121.592 45.4567 122.53 44.6754L123.936 47.91C123.248 48.5038 122.42 48.9414 121.451 49.2226C120.514 49.5039 119.529 49.6446 118.498 49.6446ZM106.403 28.2208V24.5174H122.248V28.2208H106.403Z" fill="black"/>
<path d="M129.78 60.1835L140.158 54.1016L150.535 59.8794L140.158 65.9614L129.78 60.1835Z" fill="#9E9898" fill-opacity="0.46"/>
<path d="M132.222 4.9826L140.623 0.0410156L149.024 4.73552L140.623 9.6771L132.222 4.9826Z" fill="#A3EBB1"/>
<path d="M132.222 4.98242V14.8656L140.623 19.8072V9.67693L132.222 4.98242Z" fill="#116530"/>
<path d="M140.623 9.67791L149.023 4.73633V14.6689L140.623 19.8082V9.67791Z" fill="#21B6A8"/>
<path d="M131.757 32.0568L140.158 27.1152L148.559 31.8097L140.158 36.7513L131.757 32.0568Z" fill="#A3EBB1"/>
<path d="M131.757 32.0566V41.9398L140.158 46.8814V36.7511L131.757 32.0566Z" fill="#116530"/>
<path d="M140.158 36.7521L148.559 31.8105V41.7431L140.158 46.8824V36.7521Z" fill="#21B6A8"/>
</svg>
